<?xml version="1.0" encoding="UTF-8"?>
<svg id="a" data-name="Layer 2" xmlns="http://www.w3.org/2000/svg" viewBox="0 0 19.355 19.355">
  <path d="M14.665,10.186h-.746v1.214h.774c.286,0,.488-.046.602-.139s.172-.247.172-.464c0-.21-.062-.364-.186-.463-.125-.099-.33-.148-.616-.148Z" fill="#c6c6c6"/>
  <path d="M15.353,8.227c0-.197-.053-.336-.158-.415-.105-.08-.292-.12-.559-.12h-.716v1.099h.697c.49,0,.736-.188.736-.564Z" fill="#c6c6c6"/>
  <path d="M15.457,0H3.899C1.746,0,0,1.746,0,3.899v11.558c0,2.153,1.746,3.899,3.899,3.899h11.558c2.153,0,3.899-1.746,3.899-3.899V3.899c0-2.153-1.746-3.899-3.899-3.899ZM11.2,6.575l-1.605,6.048c-.057.203-.194.305-.411.305h-1.462c-.216,0-.353-.102-.411-.305l-.574-2.217-.267-1.204h-.038l-.267,1.204-.573,2.217c-.057.203-.194.305-.411.305h-1.462c-.216,0-.353-.102-.411-.305l-1.605-6.048c-.07-.274.016-.411.258-.411h1.433c.229,0,.37.105.421.315l.468,2.284.296,1.557h.038l.306-1.557.516-2.293c.044-.204.185-.306.42-.306h1.185c.236,0,.376.102.421.306l.516,2.293.306,1.557h.038l.296-1.557.468-2.284c.051-.21.191-.315.421-.315h1.433c.242,0,.328.137.258.411ZM14.789,12.928h-2.57c-.23,0-.344-.114-.344-.344v-6.076c0-.229.114-.344.344-.344h2.465c.917,0,1.592.138,2.025.416.433.277.649.743.649,1.4,0,.331-.08.614-.243.85s-.362.401-.597.497c.675.229,1.012.758,1.012,1.586,0,1.344-.914,2.016-2.742,2.016Z" fill="#c6c6c6"/>
</svg>